<?xml version="1.0" encoding="UTF-8" standalone="no"?>
<!-- Creator: CorelDRAW 2017 -->

<svg
   xmlns:dc="http://purl.org/dc/elements/1.1/"
   xmlns:cc="http://creativecommons.org/ns#"
   xmlns:rdf="http://www.w3.org/1999/02/22-rdf-syntax-ns#"
   xmlns:svg="http://www.w3.org/2000/svg"
   xmlns="http://www.w3.org/2000/svg"
   xmlns:sodipodi="http://sodipodi.sourceforge.net/DTD/sodipodi-0.dtd"
   xmlns:inkscape="http://www.inkscape.org/namespaces/inkscape"
   xml:space="preserve"
   width="3.6299999mm"
   height="3.6499999mm"
   version="1.1"
   style="clip-rule:evenodd;fill-rule:evenodd;image-rendering:optimizeQuality;shape-rendering:geometricPrecision;text-rendering:geometricPrecision"
   viewBox="0 0 362.99999 364.99999"
   id="svg2"
   inkscape:version="0.91 r13725"
   sodipodi:docname="facebook-square.svg"><metadata
     id="metadata14"><rdf:RDF><cc:Work
         rdf:about=""><dc:format>image/svg+xml</dc:format><dc:type
           rdf:resource="http://purl.org/dc/dcmitype/StillImage" /><dc:title /></cc:Work></rdf:RDF></metadata><sodipodi:namedview
     pagecolor="#ffffff"
     bordercolor="#666666"
     borderopacity="1"
     objecttolerance="10"
     gridtolerance="10"
     guidetolerance="10"
     inkscape:pageopacity="0"
     inkscape:pageshadow="2"
     inkscape:window-width="1366"
     inkscape:window-height="714"
     id="namedview12"
     showgrid="false"
     fit-margin-top="0"
     fit-margin-left="0"
     fit-margin-right="0"
     fit-margin-bottom="0"
     inkscape:zoom="32.643905"
     inkscape:cx="2.6643214"
     inkscape:cy="6.9757862"
     inkscape:window-x="0"
     inkscape:window-y="0"
     inkscape:window-maximized="1"
     inkscape:current-layer="svg2" /><defs
     id="defs4"><style
       type="text/css"
       id="style6"><![CDATA[
    .fil0 {fill:#282828;fill-rule:nonzero}
   ]]></style></defs><g
     id="Camada_x0020_1"
     transform="translate(-10319,-14668)"
     style="fill:#49b05f;fill-opacity:0.94117647"><metadata
       id="CorelCorpID_0Corel-Layer" /><path
       class="fil0"
       d="m 10614,14668 c 19,0 35,7 48,20 13,13 20,29 20,48 l 0,228 c 0,19 -7,35 -20,48 -13,13 -29,20 -48,20 l -45,0 0,-141 47,0 7,-55 -54,0 0,-35 c 0,-9 2,-15 6,-20 4,-4 11,-7 22,-7 l 29,0 0,-49 c -10,-1 -24,-2 -42,-2 -22,0 -39,6 -52,19 -13,13 -19,30 -19,54 l 0,41 -47,0 0,55 47,0 0,141 -126,0 c -19,0 -35,-7 -48,-20 -13,-13 -20,-29 -20,-48 l 0,-228 c 0,-19 7,-35 20,-48 13,-13 29,-20 48,-20 l 228,0 z"
       id="path10"
       inkscape:connector-curvature="0"
       style="fill:#49b05f;fill-rule:nonzero;fill-opacity:0.94117647" /></g></svg>