<?xml version="1.0" encoding="UTF-8" standalone="no"?>
<!-- Creator: CorelDRAW 2017 -->

<svg
   xmlns:dc="http://purl.org/dc/elements/1.1/"
   xmlns:cc="http://creativecommons.org/ns#"
   xmlns:rdf="http://www.w3.org/1999/02/22-rdf-syntax-ns#"
   xmlns:svg="http://www.w3.org/2000/svg"
   xmlns="http://www.w3.org/2000/svg"
   xmlns:sodipodi="http://sodipodi.sourceforge.net/DTD/sodipodi-0.dtd"
   xmlns:inkscape="http://www.inkscape.org/namespaces/inkscape"
   xml:space="preserve"
   width="3.6399999mm"
   height="3.6399999mm"
   version="1.1"
   style="clip-rule:evenodd;fill-rule:evenodd;image-rendering:optimizeQuality;shape-rendering:geometricPrecision;text-rendering:geometricPrecision"
   viewBox="0 0 363.99999 363.99999"
   id="svg16"
   inkscape:version="0.91 r13725"
   sodipodi:docname="google-plus-square.svg"><metadata
     id="metadata28"><rdf:RDF><cc:Work
         rdf:about=""><dc:format>image/svg+xml</dc:format><dc:type
           rdf:resource="http://purl.org/dc/dcmitype/StillImage" /><dc:title /></cc:Work></rdf:RDF></metadata><sodipodi:namedview
     pagecolor="#ffffff"
     bordercolor="#666666"
     borderopacity="1"
     objecttolerance="10"
     gridtolerance="10"
     guidetolerance="10"
     inkscape:pageopacity="0"
     inkscape:pageshadow="2"
     inkscape:window-width="1366"
     inkscape:window-height="714"
     id="namedview26"
     showgrid="false"
     fit-margin-top="0"
     fit-margin-left="0"
     fit-margin-right="0"
     fit-margin-bottom="0"
     inkscape:zoom="23.082726"
     inkscape:cx="12.858965"
     inkscape:cy="8.4387417"
     inkscape:window-x="0"
     inkscape:window-y="0"
     inkscape:window-maximized="1"
     inkscape:current-layer="svg16" /><defs
     id="defs18"><style
       type="text/css"
       id="style20"><![CDATA[
    .fil0 {fill:#282828;fill-rule:nonzero}
   ]]></style></defs><g
     id="Camada_x0020_1"
     transform="translate(-10318,-14668)"
     style="fill:#49b05f;fill-opacity:0.94117647"><metadata
       id="CorelCorpID_0Corel-Layer" /><path
       class="fil0"
       d="m 10682,14736 0,228 c 0,19 -7,35 -20,48 -13,13 -29,20 -48,20 l -228,0 c -19,0 -35,-7 -48,-20 -13,-13 -20,-29 -20,-48 l 0,-228 c 0,-19 7,-35 20,-48 13,-13 29,-20 48,-20 l 228,0 c 19,0 35,7 48,20 13,13 20,29 20,48 z m -65,127 26,0 0,-26 -26,0 0,-26 -26,0 0,26 -26,0 0,26 26,0 0,26 26,0 0,-26 z m -82,-11 c 0,-4 0,-9 -1,-15 l -86,0 0,31 51,0 c 0,4 -2,8 -4,12 -2,4 -5,8 -9,13 -4,4 -9,8 -16,11 -7,3 -14,4 -23,4 -16,0 -29,-6 -40,-17 -11,-11 -17,-25 -17,-41 0,-16 6,-29 17,-41 11,-11 24,-17 40,-17 15,0 27,5 36,14 l 25,-24 c -17,-16 -37,-24 -61,-24 -25,0 -47,9 -64,27 -18,18 -27,39 -27,64 0,25 9,47 27,64 18,18 39,27 64,27 26,0 47,-8 63,-25 16,-17 24,-38 24,-64 z"
       id="path24"
       inkscape:connector-curvature="0"
       style="fill:#49b05f;fill-rule:nonzero;fill-opacity:0.94117647" /></g></svg>