<?xml version="1.0" encoding="UTF-8" standalone="no"?>
<!-- Creator: CorelDRAW 2017 -->

<svg
   xmlns:dc="http://purl.org/dc/elements/1.1/"
   xmlns:cc="http://creativecommons.org/ns#"
   xmlns:rdf="http://www.w3.org/1999/02/22-rdf-syntax-ns#"
   xmlns:svg="http://www.w3.org/2000/svg"
   xmlns="http://www.w3.org/2000/svg"
   xmlns:sodipodi="http://sodipodi.sourceforge.net/DTD/sodipodi-0.dtd"
   xmlns:inkscape="http://www.inkscape.org/namespaces/inkscape"
   xml:space="preserve"
   width="3.6399999mm"
   height="3.6399999mm"
   version="1.1"
   style="clip-rule:evenodd;fill-rule:evenodd;image-rendering:optimizeQuality;shape-rendering:geometricPrecision;text-rendering:geometricPrecision"
   viewBox="0 0 363.99999 363.99999"
   id="svg30"
   inkscape:version="0.91 r13725"
   sodipodi:docname="instagram.svg"><metadata
     id="metadata42"><rdf:RDF><cc:Work
         rdf:about=""><dc:format>image/svg+xml</dc:format><dc:type
           rdf:resource="http://purl.org/dc/dcmitype/StillImage" /><dc:title /></cc:Work></rdf:RDF></metadata><sodipodi:namedview
     pagecolor="#ffffff"
     bordercolor="#666666"
     borderopacity="1"
     objecttolerance="10"
     gridtolerance="10"
     guidetolerance="10"
     inkscape:pageopacity="0"
     inkscape:pageshadow="2"
     inkscape:window-width="1366"
     inkscape:window-height="714"
     id="namedview40"
     showgrid="false"
     fit-margin-top="0"
     fit-margin-left="0"
     fit-margin-right="0"
     fit-margin-bottom="0"
     inkscape:zoom="11.541363"
     inkscape:cx="6.4409874"
     inkscape:cy="-2.851691"
     inkscape:window-x="0"
     inkscape:window-y="0"
     inkscape:window-maximized="1"
     inkscape:current-layer="svg30" /><defs
     id="defs32"><style
       type="text/css"
       id="style34"><![CDATA[
    .fil0 {fill:#282828}
   ]]></style></defs><g
     id="Camada_x0020_1"
     transform="translate(-10318,-14668)"
     style="fill:#49b05f;fill-opacity:0.94117647"><metadata
       id="CorelCorpID_0Corel-Layer" /><path
       class="fil0"
       d="m 10682,14736 0,228 c 0,19 -7,35 -20,48 -13,13 -29,20 -48,20 l -228,0 c -19,0 -35,-7 -48,-20 -13,-13 -20,-29 -20,-48 l 0,-228 c 0,-19 7,-35 20,-48 13,-13 29,-20 48,-20 l 228,0 c 19,0 35,7 48,20 13,13 20,29 20,48 z m -38,114 c 0,29 0,48 -1,59 -1,26 -9,46 -23,60 -14,14 -34,22 -60,23 -11,1 -31,1 -59,1 -29,0 -48,0 -59,-1 -26,-1 -46,-9 -60,-23 -14,-14 -22,-34 -23,-60 -1,-11 -1,-31 -1,-59 0,-29 0,-48 1,-59 1,-26 9,-46 23,-60 14,-14 34,-22 60,-23 11,-1 31,-1 59,-1 29,0 48,0 59,1 26,1 46,9 60,23 14,14 22,34 23,60 1,11 1,31 1,59 z m -144,-118 c -1,0 -6,0 -14,0 -9,0 -15,0 -20,0 -5,0 -11,0 -18,1 -8,0 -14,1 -19,2 -5,1 -10,2 -13,3 -6,3 -12,6 -16,11 -5,5 -8,10 -11,16 -1,4 -3,8 -3,13 -1,5 -2,12 -2,19 0,8 -1,14 -1,18 0,5 0,11 0,20 0,9 0,13 0,14 0,1 0,6 0,14 0,9 0,15 0,20 0,5 0,11 1,18 0,8 1,14 2,19 1,5 2,10 3,13 3,6 6,12 11,16 5,5 10,8 16,11 4,1 8,3 13,3 5,1 12,2 19,2 8,0 14,1 18,1 5,0 11,0 20,0 9,0 13,0 14,0 1,0 6,0 14,0 9,0 15,0 20,0 5,0 11,0 18,-1 8,0 14,-1 19,-2 5,-1 10,-2 13,-3 6,-3 12,-6 16,-11 5,-5 8,-10 11,-16 1,-4 3,-8 3,-13 1,-5 2,-12 2,-19 0,-8 1,-14 1,-18 0,-5 0,-11 0,-20 0,-9 0,-13 0,-14 0,-1 0,-6 0,-14 0,-9 0,-15 0,-20 0,-5 0,-11 -1,-18 0,-8 -1,-14 -2,-19 -1,-5 -2,-10 -3,-13 -3,-6 -6,-12 -11,-16 -5,-5 -10,-8 -16,-11 -4,-1 -8,-3 -13,-3 -5,-1 -12,-2 -19,-2 -8,0 -14,-1 -18,-1 -5,0 -11,0 -20,0 -9,0 -13,0 -14,0 z m 94,41 c 0,5 -2,9 -5,12 -3,3 -7,5 -12,5 -5,0 -9,-2 -12,-5 -3,-3 -5,-7 -5,-12 0,-5 2,-9 5,-12 3,-3 7,-5 12,-5 5,0 9,2 12,5 3,3 5,7 5,12 z m -20,77 c 0,20 -7,38 -22,52 -14,14 -32,22 -52,22 -20,0 -38,-7 -52,-22 -14,-14 -22,-32 -22,-52 0,-20 7,-38 22,-52 14,-14 32,-22 52,-22 20,0 38,7 52,22 14,14 22,32 22,52 z m -26,0 c 0,-13 -5,-25 -14,-34 -9,-9 -21,-14 -34,-14 -13,0 -25,5 -34,14 -9,9 -14,21 -14,34 0,13 5,25 14,34 9,9 21,14 34,14 13,0 25,-5 34,-14 9,-9 14,-21 14,-34 z"
       id="path38"
       inkscape:connector-curvature="0"
       style="fill:#49b05f;fill-opacity:0.94117647" /></g></svg>