<?xml version="1.0" encoding="UTF-8" standalone="no"?>
<!-- Creator: CorelDRAW 2017 -->

<svg
   xmlns:dc="http://purl.org/dc/elements/1.1/"
   xmlns:cc="http://creativecommons.org/ns#"
   xmlns:rdf="http://www.w3.org/1999/02/22-rdf-syntax-ns#"
   xmlns:svg="http://www.w3.org/2000/svg"
   xmlns="http://www.w3.org/2000/svg"
   xmlns:sodipodi="http://sodipodi.sourceforge.net/DTD/sodipodi-0.dtd"
   xmlns:inkscape="http://www.inkscape.org/namespaces/inkscape"
   xml:space="preserve"
   width="3.6399999mm"
   height="3.6399999mm"
   version="1.1"
   style="clip-rule:evenodd;fill-rule:evenodd;image-rendering:optimizeQuality;shape-rendering:geometricPrecision;text-rendering:geometricPrecision"
   viewBox="0 0 363.99999 363.99999"
   id="svg2"
   inkscape:version="0.91 r13725"
   sodipodi:docname="linkedin-square.svg"><metadata
     id="metadata14"><rdf:RDF><cc:Work
         rdf:about=""><dc:format>image/svg+xml</dc:format><dc:type
           rdf:resource="http://purl.org/dc/dcmitype/StillImage" /><dc:title /></cc:Work></rdf:RDF></metadata><sodipodi:namedview
     pagecolor="#ffffff"
     bordercolor="#666666"
     borderopacity="1"
     objecttolerance="10"
     gridtolerance="10"
     guidetolerance="10"
     inkscape:pageopacity="0"
     inkscape:pageshadow="2"
     inkscape:window-width="1366"
     inkscape:window-height="714"
     id="namedview12"
     showgrid="false"
     fit-margin-top="0"
     fit-margin-left="0"
     fit-margin-right="0"
     fit-margin-bottom="0"
     inkscape:zoom="32.643905"
     inkscape:cx="5.9286678"
     inkscape:cy="9.1204626"
     inkscape:window-x="0"
     inkscape:window-y="0"
     inkscape:window-maximized="1"
     inkscape:current-layer="svg2" /><defs
     id="defs4"><style
       type="text/css"
       id="style6"><![CDATA[
    .fil0 {fill:#282828;fill-rule:nonzero}
   ]]></style></defs><g
     id="Camada_x0020_1"
     transform="translate(-10318,-14668)"
     style="fill:#49b05f;fill-opacity:0.94117647"><metadata
       id="CorelCorpID_0Corel-Layer" /><path
       class="fil0"
       d="m 10682,14736 0,228 c 0,19 -7,35 -20,48 -13,13 -29,20 -48,20 l -228,0 c -19,0 -35,-7 -48,-20 -13,-13 -20,-29 -20,-48 l 0,-228 c 0,-19 7,-35 20,-48 13,-13 29,-20 48,-20 l 228,0 c 19,0 35,7 48,20 13,13 20,29 20,48 z m -111,237 55,0 0,-94 c 0,-24 -6,-43 -17,-55 -12,-12 -27,-19 -46,-19 -21,0 -38,9 -50,28 l 0,0 0,-24 -55,0 c 0,10 0,65 0,165 l 55,0 0,-92 c 0,-6 1,-10 2,-13 2,-6 6,-10 11,-14 5,-4 11,-6 18,-6 18,0 28,12 28,37 l 0,88 z m -139,-215 c 0,-8 -3,-15 -9,-20 -6,-5 -13,-8 -22,-8 -9,0 -17,3 -22,8 -6,5 -9,12 -9,20 0,8 3,15 8,20 6,5 13,8 22,8 l 0,0 c 9,0 17,-3 23,-8 6,-5 9,-12 9,-20 z m -58,215 55,0 0,-165 -55,0 0,165 z"
       id="path10"
       inkscape:connector-curvature="0"
       style="fill:#49b05f;fill-rule:nonzero;fill-opacity:0.94117647" /></g></svg>