<?xml version="1.0" encoding="UTF-8" standalone="no"?>
<!-- Creator: CorelDRAW 2017 -->

<svg
   xmlns:dc="http://purl.org/dc/elements/1.1/"
   xmlns:cc="http://creativecommons.org/ns#"
   xmlns:rdf="http://www.w3.org/1999/02/22-rdf-syntax-ns#"
   xmlns:svg="http://www.w3.org/2000/svg"
   xmlns="http://www.w3.org/2000/svg"
   xmlns:sodipodi="http://sodipodi.sourceforge.net/DTD/sodipodi-0.dtd"
   xmlns:inkscape="http://www.inkscape.org/namespaces/inkscape"
   xml:space="preserve"
   width="3.6399999mm"
   height="3.6399999mm"
   version="1.1"
   style="clip-rule:evenodd;fill-rule:evenodd;image-rendering:optimizeQuality;shape-rendering:geometricPrecision;text-rendering:geometricPrecision"
   viewBox="0 0 363.99999 363.99999"
   id="svg44"
   inkscape:version="0.91 r13725"
   sodipodi:docname="twitter-square.svg"><metadata
     id="metadata56"><rdf:RDF><cc:Work
         rdf:about=""><dc:format>image/svg+xml</dc:format><dc:type
           rdf:resource="http://purl.org/dc/dcmitype/StillImage" /><dc:title /></cc:Work></rdf:RDF></metadata><sodipodi:namedview
     pagecolor="#ffffff"
     bordercolor="#666666"
     borderopacity="1"
     objecttolerance="10"
     gridtolerance="10"
     guidetolerance="10"
     inkscape:pageopacity="0"
     inkscape:pageshadow="2"
     inkscape:window-width="1366"
     inkscape:window-height="714"
     id="namedview54"
     showgrid="false"
     fit-margin-top="0"
     fit-margin-left="0"
     fit-margin-right="0"
     fit-margin-bottom="0"
     inkscape:zoom="5.7706815"
     inkscape:cx="-7.7684162"
     inkscape:cy="-3.265829"
     inkscape:window-x="0"
     inkscape:window-y="0"
     inkscape:window-maximized="1"
     inkscape:current-layer="svg44" /><defs
     id="defs46"><style
       type="text/css"
       id="style48"><![CDATA[
    .fil0 {fill:#282828;fill-rule:nonzero}
   ]]></style></defs><g
     id="Camada_x0020_1"
     transform="translate(-10318,-14668)"
     style="fill:#49b05f;fill-opacity:0.94117647"><metadata
       id="CorelCorpID_0Corel-Layer" /><path
       class="fil0"
       d="m 10682,14736 0,228 c 0,19 -7,35 -20,48 -13,13 -29,20 -48,20 l -228,0 c -19,0 -35,-7 -48,-20 -13,-13 -20,-29 -20,-48 l 0,-228 c 0,-19 7,-35 20,-48 13,-13 29,-20 48,-20 l 228,0 c 19,0 35,7 48,20 13,13 20,29 20,48 z m -61,46 c -9,4 -18,7 -29,8 11,-6 18,-16 22,-28 -10,6 -21,10 -32,12 -10,-10 -22,-16 -36,-16 -14,0 -25,5 -35,15 -10,10 -15,21 -15,35 0,5 0,8 1,11 -20,-1 -40,-6 -57,-15 -18,-9 -33,-21 -46,-37 -5,8 -7,16 -7,25 0,18 7,32 22,41 -7,0 -15,-2 -24,-6 l 0,0 c 0,12 4,22 12,32 8,9 18,15 29,17 -5,1 -9,2 -12,2 -2,0 -5,0 -9,-1 3,10 9,18 18,25 8,6 18,10 29,10 -18,14 -39,21 -62,21 -4,0 -8,0 -12,-1 23,15 49,22 76,22 18,0 34,-3 50,-8 15,-6 29,-13 40,-23 11,-9 21,-20 29,-32 8,-12 14,-25 18,-38 4,-13 6,-27 6,-40 0,-3 0,-5 0,-6 10,-7 18,-16 25,-26 z"
       id="path52"
       inkscape:connector-curvature="0"
       style="fill:#49b05f;fill-rule:nonzero;fill-opacity:0.94117647" /></g></svg>