<?xml version="1.0" encoding="UTF-8" standalone="no"?>
<!-- Creator: CorelDRAW 2017 -->

<svg
   xmlns:dc="http://purl.org/dc/elements/1.1/"
   xmlns:cc="http://creativecommons.org/ns#"
   xmlns:rdf="http://www.w3.org/1999/02/22-rdf-syntax-ns#"
   xmlns:svg="http://www.w3.org/2000/svg"
   xmlns="http://www.w3.org/2000/svg"
   xmlns:sodipodi="http://sodipodi.sourceforge.net/DTD/sodipodi-0.dtd"
   xmlns:inkscape="http://www.inkscape.org/namespaces/inkscape"
   xml:space="preserve"
   width="3.6399999mm"
   height="3.6399999mm"
   version="1.1"
   style="clip-rule:evenodd;fill-rule:evenodd;image-rendering:optimizeQuality;shape-rendering:geometricPrecision;text-rendering:geometricPrecision"
   viewBox="0 0 363.99999 363.99999"
   id="svg58"
   inkscape:version="0.91 r13725"
   sodipodi:docname="youtube-square.svg"><metadata
     id="metadata70"><rdf:RDF><cc:Work
         rdf:about=""><dc:format>image/svg+xml</dc:format><dc:type
           rdf:resource="http://purl.org/dc/dcmitype/StillImage" /><dc:title /></cc:Work></rdf:RDF></metadata><sodipodi:namedview
     pagecolor="#ffffff"
     bordercolor="#666666"
     borderopacity="1"
     objecttolerance="10"
     gridtolerance="10"
     guidetolerance="10"
     inkscape:pageopacity="0"
     inkscape:pageshadow="2"
     inkscape:window-width="1366"
     inkscape:window-height="714"
     id="namedview68"
     showgrid="false"
     fit-margin-top="0"
     fit-margin-left="0"
     fit-margin-right="0"
     fit-margin-bottom="0"
     inkscape:zoom="16.321952"
     inkscape:cx="-24.341984"
     inkscape:cy="-4.6927399"
     inkscape:window-x="0"
     inkscape:window-y="0"
     inkscape:window-maximized="1"
     inkscape:current-layer="svg58" /><defs
     id="defs60"><style
       type="text/css"
       id="style62"><![CDATA[
    .fil0 {fill:#282828;fill-rule:nonzero}
   ]]></style></defs><g
     id="Camada_x0020_1"
     transform="translate(-10318,-14668)"
     style="fill:#49b05f;fill-opacity:0.94117647"><metadata
       id="CorelCorpID_0Corel-Layer" /><path
       class="fil0"
       d="m 10682,14736 0,228 c 0,19 -7,35 -20,48 -13,13 -29,20 -48,20 l -228,0 c -19,0 -35,-7 -48,-20 -13,-13 -20,-29 -20,-48 l 0,-228 c 0,-19 7,-35 20,-48 13,-13 29,-20 48,-20 l 228,0 c 19,0 35,7 48,20 13,13 20,29 20,48 z m -119,72 16,0 0,-88 -16,0 0,67 c -3,5 -7,7 -10,7 -2,0 -4,-1 -4,-4 0,0 0,-2 0,-6 l 0,-64 -16,0 0,69 c 0,6 0,10 1,13 2,4 5,6 10,6 6,0 12,-4 18,-11 l 0,9 z m -43,-28 0,-31 c 0,-9 -2,-16 -5,-21 -5,-6 -11,-9 -18,-9 -8,0 -14,3 -18,9 -3,5 -5,11 -5,21 l 0,31 c 0,9 2,16 5,21 4,6 10,9 18,9 8,0 14,-3 18,-9 3,-4 5,-11 5,-21 z m -69,-19 21,-70 -18,0 -12,46 -13,-46 -18,0 c 1,4 3,9 5,16 l 6,16 c 6,16 9,29 11,37 l 0,48 18,0 0,-48 z m 179,154 c 0,-28 -2,-49 -5,-62 -2,-7 -5,-13 -10,-17 -5,-5 -11,-7 -18,-8 -21,-2 -54,-4 -98,-4 -43,0 -76,1 -97,4 -7,1 -13,4 -18,8 -5,5 -8,10 -10,17 -3,14 -5,34 -5,62 0,28 2,48 5,62 2,7 5,13 10,17 5,5 11,8 18,8 22,2 54,4 98,4 43,0 76,-1 98,-4 7,-1 13,-4 18,-8 5,-5 8,-11 10,-17 3,-13 5,-34 5,-62 z m -126,-169 0,37 c 0,8 -3,12 -8,12 -5,0 -8,-4 -8,-12 l 0,-37 c 0,-8 3,-12 8,-12 5,0 8,4 8,12 z m 107,195 0,2 c 0,5 0,8 0,10 0,3 -2,7 -4,9 -4,6 -11,9 -19,9 -8,0 -15,-3 -19,-9 -3,-4 -5,-11 -5,-20 l 0,-31 c 0,-9 2,-16 5,-20 5,-6 11,-9 19,-9 8,0 14,3 18,9 3,5 5,11 5,20 l 0,18 -32,0 0,15 c 0,8 3,12 8,12 4,0 6,-2 7,-6 0,0 0,-1 0,-2 0,-1 0,-2 0,-4 l 0,-5 16,0 z m -60,-31 0,35 c 0,8 -1,14 -2,17 -2,7 -6,10 -13,10 -6,0 -11,-3 -16,-10 l 0,9 -16,0 0,-117 16,0 0,38 c 5,-6 10,-9 16,-9 6,0 11,3 13,10 1,3 2,9 2,18 z m -60,-26 0,87 -16,0 0,-9 c -6,7 -12,11 -18,11 -5,0 -9,-2 -10,-7 -1,-3 -1,-7 -1,-13 l 0,-69 16,0 0,64 c 0,4 0,6 0,6 0,2 1,4 4,4 3,0 6,-2 10,-7 l 0,-66 16,0 z m -48,-30 0,17 -19,0 0,100 -18,0 0,-100 -18,0 0,-17 55,0 z m 135,63 16,0 0,-8 c 0,-8 -3,-12 -8,-12 -5,0 -8,4 -8,12 l 0,8 z m -44,29 0,-37 c 0,-8 -2,-12 -7,-12 -3,0 -5,1 -8,4 l 0,53 c 3,3 5,4 8,4 5,0 7,-4 7,-12 z"
       id="path66"
       inkscape:connector-curvature="0"
       style="fill:#49b05f;fill-rule:nonzero;fill-opacity:0.94117647" /></g></svg>