<?xml version="1.0" encoding="UTF-8" standalone="no"?>
<svg
   xmlns:dc="http://purl.org/dc/elements/1.1/"
   xmlns:cc="http://creativecommons.org/ns#"
   xmlns:rdf="http://www.w3.org/1999/02/22-rdf-syntax-ns#"
   xmlns:svg="http://www.w3.org/2000/svg"
   xmlns="http://www.w3.org/2000/svg"
   xmlns:sodipodi="http://sodipodi.sourceforge.net/DTD/sodipodi-0.dtd"
   xmlns:inkscape="http://www.inkscape.org/namespaces/inkscape"
   version="1.1"
   width="178.19646"
   height="57.722057"
   id="svg2"
   inkscape:version="0.91 r13725"
   viewBox="0 0 178.19646 57.722058"
   sodipodi:docname="modeon.svg">
  <metadata
     id="metadata25">
    <rdf:RDF>
      <cc:Work
         rdf:about="">
        <dc:format>image/svg+xml</dc:format>
        <dc:type
           rdf:resource="http://purl.org/dc/dcmitype/StillImage" />
        <dc:title></dc:title>
      </cc:Work>
    </rdf:RDF>
  </metadata>
  <defs
     id="defs23" />
  <sodipodi:namedview
     pagecolor="#ffffff"
     bordercolor="#666666"
     borderopacity="1"
     objecttolerance="10"
     gridtolerance="10"
     guidetolerance="10"
     inkscape:pageopacity="0"
     inkscape:pageshadow="2"
     inkscape:window-width="1366"
     inkscape:window-height="714"
     id="namedview21"
     showgrid="false"
     fit-margin-top="0"
     fit-margin-left="0"
     fit-margin-right="0"
     fit-margin-bottom="0"
     inkscape:zoom="3.1183408"
     inkscape:cx="65.665215"
     inkscape:cy="40.474369"
     inkscape:window-x="0"
     inkscape:window-y="0"
     inkscape:window-maximized="1"
     inkscape:current-layer="svg2" />
  <rect
     style="opacity:1;fill:none;fill-opacity:1;stroke:none;stroke-width:9.5;stroke-miterlimit:4;stroke-dasharray:none;stroke-opacity:1"
     id="rect3341"
     width="199.43477"
     height="199.43477"
     x="-10.619147"
     y="-70.856346" />
  <g
     id="Layer1000"
     transform="matrix(18.561938,0,0,18.561938,-22.272469,-82.509671)"
     inkscape:export-xdpi="306.57172"
     inkscape:export-ydpi="306.57172">
    <path
       d="m 8.992,5.838 c 0,0.279 -0.2235,0.5025 -0.5025,0.5025 l -0.2022,0 c -0.279,0 -0.5025,-0.2235 -0.5025,-0.5025 0,-0.1469 0,-0.2939 0,-0.4408 0,-0.279 0.2235,-0.5025 0.5025,-0.5025 l 0.2022,0 c 0.279,0 0.5025,0.2235 0.5025,0.5025 0,0.1469 0,0.2939 0,0.4408 z m -0.9068,0 c 0,0.1099 0.0931,0.1994 0.2021,0.1994 l 0.2022,0 c 0.109,0 0.2021,-0.0895 0.2021,-0.1994 0,-0.1469 0,-0.2939 0,-0.4408 0,-0.1099 -0.0931,-0.1993 -0.2021,-0.1993 l -0.2022,0 c -0.109,0 -0.2021,0.0894 -0.2021,0.1993 0,0.1469 0,0.2939 0,0.4408 z"
       style="fill:#49b05c;fill-rule:evenodd"
       id="path5"
       inkscape:connector-curvature="0" />
    <path
       d="m 9.4426,6.3012 c 0,0.0262 -0.0122,0.0393 -0.0365,0.0393 l -0.2274,0 c -0.0243,0 -0.0365,-0.0131 -0.0365,-0.0393 0,-0.3013 0,-0.6027 0,-0.904 l 0,-0.4632 c 0,-0.0262 0.0122,-0.0393 0.0365,-0.0393 l 0.2274,0 c 0.0271,0 0.0365,0.0156 0.0365,0.0409 C 9.5044,4.9083 9.5718,4.8947 9.6447,4.8947 l 0.2022,0 c 0.279,0 0.5025,0.2235 0.5025,0.5025 0,0.3013 0,0.6027 0,0.904 0,0.0262 -0.0122,0.0393 -0.0365,0.0393 l -0.2274,0 c -0.0243,0 -0.0365,-0.0131 -0.0365,-0.0393 0,-0.3013 0,-0.6027 0,-0.904 0,-0.1099 -0.0931,-0.1993 -0.2021,-0.1993 l -0.2022,0 c -0.109,0 -0.2021,0.0894 -0.2021,0.1993 0,0.3013 0,0.6027 0,0.904 z"
       style="fill:#49b05c;fill-rule:evenodd"
       id="path7"
       inkscape:connector-curvature="0" />
    <path
       d="m 10.8,4.4845 c 0,-0.0262 -0.0122,-0.0393 -0.0365,-0.0393 -1.1309,0 -2.2619,0 -3.3928,0 -0.0243,0 -0.0365,0.0131 -0.0365,0.0393 l 0,2.2673 c 0,0.0262 0.0122,0.0393 0.0365,0.0393 1.1309,0 2.2619,0 3.3928,0 0.0243,0 0.0365,-0.0131 0.0365,-0.0393 l 0,-2.2673 z m -0.3004,0.5614 0,1.1445 0,0.261 c 0,0.0262 -0.0122,0.0393 -0.0365,0.0393 l -0.2639,0 -2.2642,0 -0.2639,0 c -0.0243,0 -0.0365,-0.0131 -0.0365,-0.0393 l 0,-0.261 0,-1.1445 0,-0.2611 c 0,-0.0262 0.0122,-0.0393 0.0365,-0.0393 l 0.2639,0 2.2642,0 0.2639,0 c 0.0243,0 0.0365,0.0131 0.0365,0.0393 l 0,0.2611 z"
       style="fill:#49b05c;fill-rule:evenodd"
       id="path9"
       inkscape:connector-curvature="0" />
    <path
       d="m 1.5003,6.3012 c 0,0.0262 -0.0122,0.0393 -0.0365,0.0393 l -0.2274,0 c -0.0243,0 -0.0365,-0.0131 -0.0365,-0.0393 0,-0.4557 0,-0.9115 0,-1.3672 0,-0.0262 0.0122,-0.0393 0.0365,-0.0393 l 0.2274,0 c 0.0271,0 0.0365,0.0156 0.0365,0.0409 C 1.5621,4.9083 1.6295,4.8947 1.7024,4.8947 l 0.1011,0 c 0.1372,0 0.2546,0.0482 0.3523,0.1446 C 2.2536,4.9429 2.371,4.8947 2.5082,4.8947 l 0.1011,0 c 0.279,0 0.5025,0.2235 0.5025,0.5025 0,0.3013 0,0.6027 0,0.904 0,0.0262 -0.0122,0.0393 -0.0365,0.0393 l -0.2274,0 c -0.0243,0 -0.0365,-0.0131 -0.0365,-0.0393 0,-0.3013 0,-0.6027 0,-0.904 0,-0.1099 -0.0931,-0.1993 -0.2021,-0.1993 l -0.1011,0 c -0.1091,0 -0.2022,0.0894 -0.2022,0.1993 0,0.3013 0,0.6027 0,0.904 0,0.0262 -0.0121,0.0393 -0.0364,0.0393 l -0.2275,0 c -0.0243,0 -0.0365,-0.0131 -0.0365,-0.0393 0,-0.3013 0,-0.6027 0,-0.904 0,-0.1099 -0.093,-0.1993 -0.2021,-0.1993 l -0.1011,0 c -0.109,0 -0.2021,0.0894 -0.2021,0.1993 0,0.3013 0,0.6027 0,0.904 z"
       style="fill:#49b05c;fill-rule:evenodd"
       id="path11"
       inkscape:connector-curvature="0" />
    <path
       d="m 4.4692,5.838 c 0,0.279 -0.2235,0.5025 -0.5025,0.5025 l -0.2022,0 C 3.4855,6.3405 3.262,6.117 3.262,5.838 c 0,-0.1469 0,-0.2939 0,-0.4408 0,-0.279 0.2235,-0.5025 0.5025,-0.5025 l 0.2022,0 c 0.279,0 0.5025,0.2235 0.5025,0.5025 0,0.1469 0,0.2939 0,0.4408 z m -0.9068,0 c 0,0.1099 0.0931,0.1994 0.2021,0.1994 l 0.2022,0 c 0.109,0 0.2021,-0.0895 0.2021,-0.1994 0,-0.1469 0,-0.2939 0,-0.4408 0,-0.1099 -0.0931,-0.1993 -0.2021,-0.1993 l -0.2022,0 c -0.109,0 -0.2021,0.0894 -0.2021,0.1993 0,0.1469 0,0.2939 0,0.4408 z"
       style="fill:#49b05c;fill-rule:evenodd"
       id="path13"
       inkscape:connector-curvature="0" />
    <path
       d="M 5.5262,6.2987 C 5.4644,6.3256 5.3961,6.3405 5.3241,6.3405 l -0.2022,0 c -0.279,0 -0.5025,-0.2234 -0.5025,-0.5025 0,-0.1469 0,-0.2939 0,-0.4408 0,-0.279 0.2235,-0.5025 0.5025,-0.5025 l 0.2022,0 c 0.072,0 0.1403,0.0149 0.2021,0.0418 l 0,-0.4521 c 0,-0.0262 0.0122,-0.0393 0.0365,-0.0393 l 0.2274,0 c 0.0243,0 0.0365,0.0131 0.0365,0.0393 0,0.657 0,1.1599 0,1.8168 0,0.0262 -0.0122,0.0393 -0.0365,0.0393 l -0.2274,0 c -0.0243,0 -0.0365,-0.0131 -0.0365,-0.0393 l 0,-0.0025 z M 4.9198,5.838 c 0,0.1099 0.0931,0.1994 0.2021,0.1994 l 0.2022,0 c 0.109,0 0.2021,-0.0895 0.2021,-0.1994 0,-0.1469 0,-0.2939 0,-0.4408 0,-0.1099 -0.0931,-0.1993 -0.2021,-0.1993 l -0.2022,0 c -0.109,0 -0.2021,0.0894 -0.2021,0.1993 0,0.1469 0,0.2939 0,0.4408 z"
       style="fill:#49b05c;fill-rule:evenodd"
       id="path15"
       inkscape:connector-curvature="0" />
    <path
       d="M 7.1813,5.8904 C 7.1554,6.1445 6.9428,6.3405 6.6815,6.3405 l -0.2022,0 c -0.279,0 -0.5025,-0.2235 -0.5025,-0.5025 0,-0.1469 0,-0.2939 0,-0.4408 0,-0.279 0.2235,-0.5025 0.5025,-0.5025 l 0.2022,0 c 0.279,0 0.5025,0.2235 0.5025,0.5025 l 0,0.365 -0.0515,0 -0.2489,0 -0.6064,0 0,0.0758 c 0,0.1099 0.0931,0.1994 0.2021,0.1994 l 0.2022,0 c 0.091,0 0.1709,-0.0624 0.1948,-0.147 C 6.8862,5.8642 6.8885,5.8511 6.9128,5.8511 l 0.232,0 c 0.0244,0 0.0365,0.0131 0.0365,0.0393 z m -0.2977,-0.4061 0,-0.0871 c 0,-0.1099 -0.0931,-0.1993 -0.2021,-0.1993 l -0.2022,0 c -0.109,0 -0.2021,0.0894 -0.2021,0.1993 l 0,0.0871 0.6064,0 z"
       style="fill:#49b05c;fill-rule:evenodd"
       id="path17"
       inkscape:connector-curvature="0" />
    <path
       d="M 7.6277,7.5412 C 7.6077,7.5499 7.5856,7.5548 7.5623,7.5548 l -0.0654,0 c -0.0903,0 -0.1626,-0.0724 -0.1626,-0.1626 0,-0.0476 0,-0.0952 0,-0.1427 0,-0.0903 0.0723,-0.1626 0.1626,-0.1626 l 0.0654,0 c 0.0233,0 0.0454,0.0048 0.0654,0.0135 l 0,-0.1464 c 0,-0.0084 0.0039,-0.0127 0.0118,-0.0127 l 0.0736,0 c 0.0079,0 0.0118,0.0043 0.0118,0.0127 0,0.2126 0,0.3755 0,0.588 0,0.0085 -0.0039,0.0128 -0.0118,0.0128 l -0.0736,0 C 7.6316,7.5548 7.6277,7.5505 7.6277,7.542 l 0,-8e-4 z M 10.3615,7.2244 C 10.3603,7.2302 10.3565,7.2331 10.35,7.2331 l -0.0751,0 c -0.0078,0 -0.0086,-0.0043 -0.0118,-0.0127 C 10.258,7.2023 10.2465,7.185 10.2263,7.185 l -0.1234,0 c -0.0406,0 -0.05,0.0669 -0.0089,0.0741 l 0.1606,0.0281 c 0.032,0.0058 0.0559,0.0213 0.0753,0.0454 0.0683,0.0849 0.0129,0.2222 -0.1016,0.2222 l -0.1234,0 C 10.0252,7.5548 9.9753,7.4903 9.9698,7.4174 9.9709,7.4116 9.9747,7.4087 9.9812,7.4087 l 0.0751,0 c 0.0079,0 0.0086,0.0042 0.0118,0.0127 0.0051,0.018 0.0166,0.0354 0.0368,0.0354 l 0.1234,0 c 0.0406,0 0.0484,-0.0671 0.0073,-0.0743 L 10.075,7.3543 C 10.043,7.3486 10.0191,7.3331 9.9997,7.309 9.9314,7.2241 9.9884,7.087 10.1029,7.087 l 0.1234,0 c 0.0797,0 0.1296,0.0645 0.1352,0.1374 z m 0.4376,0.1847 c -0.0084,0.0822 -0.0772,0.1457 -0.1618,0.1457 l -0.0654,0 c -0.0903,0 -0.1626,-0.0724 -0.1626,-0.1626 0,-0.0476 0,-0.0952 0,-0.1427 0,-0.0903 0.0723,-0.1626 0.1626,-0.1626 l 0.0654,0 c 0.0903,0 0.1626,0.0723 0.1626,0.1626 l 0,0.1181 -0.0166,0 -0.0806,0 -0.1962,0 0,0.0246 c 0,0.0355 0.0301,0.0644 0.0654,0.0644 l 0.0654,0 c 0.0295,0 0.0553,-0.0201 0.0631,-0.0475 0.0032,-0.0085 0.0039,-0.0127 0.0118,-0.0127 l 0.0751,0 c 0.0078,0 0.0118,0.0042 0.0118,0.0127 z m -0.0964,-0.1314 0,-0.0282 c 0,-0.0356 -0.0301,-0.0645 -0.0654,-0.0645 l -0.0654,0 c -0.0353,0 -0.0654,0.0289 -0.0654,0.0645 l 0,0.0282 0.1962,0 z M 9.8242,7.0995 c 0,-0.0085 0.0039,-0.0127 0.0118,-0.0127 l 0.0736,0 c 0.0078,0 0.0118,0.0042 0.0118,0.0127 0,0.0976 0,0.1951 0,0.2926 l 0,0.1499 c 0,0.0085 -0.004,0.0128 -0.0118,0.0128 l -0.0736,0 C 9.8272,7.5548 9.8242,7.5497 9.8242,7.5415 9.8041,7.5503 9.7823,7.5548 9.7587,7.5548 l -0.0654,0 c -0.0903,0 -0.1626,-0.0724 -0.1626,-0.1627 0,-0.0975 0,-0.195 0,-0.2926 0,-0.0085 0.0039,-0.0127 0.0118,-0.0127 l 0.0736,0 c 0.0078,0 0.0118,0.0042 0.0118,0.0127 0,0.0976 0,0.1951 0,0.2926 0,0.0356 0.0301,0.0645 0.0654,0.0645 l 0.0654,0 c 0.0353,0 0.0655,-0.0289 0.0655,-0.0645 0,-0.0975 0,-0.195 0,-0.2926 z M 9.4821,7.3921 c 0,0.0903 -0.0724,0.1627 -0.1627,0.1627 l -0.0654,0 c -0.0903,0 -0.1627,-0.0724 -0.1627,-0.1627 0,-0.0475 0,-0.0951 0,-0.1427 0,-0.0903 0.0724,-0.1626 0.1627,-0.1626 l 0.0654,0 c 0.0903,0 0.1627,0.0723 0.1627,0.1626 0,0.0476 0,0.0952 0,0.1427 z m -0.2935,0 c 0,0.0356 0.0301,0.0645 0.0654,0.0645 l 0.0654,0 c 0.0353,0 0.0654,-0.0289 0.0654,-0.0645 0,-0.0475 0,-0.0951 0,-0.1427 0,-0.0355 -0.0301,-0.0645 -0.0654,-0.0645 l -0.0654,0 c -0.0353,0 -0.0654,0.029 -0.0654,0.0645 0,0.0476 0,0.0952 0,0.1427 z M 8.7493,7.542 c 0,0.0085 -0.004,0.0128 -0.0119,0.0128 l -0.0736,0 C 8.656,7.5548 8.652,7.5505 8.652,7.542 c 0,-0.2083 0,-0.3797 0,-0.588 0,-0.0084 0.004,-0.0127 0.0118,-0.0127 l 0.0736,0 c 0.0079,0 0.0119,0.0043 0.0119,0.0127 l 0,0.146 C 8.7692,7.0912 8.7911,7.0868 8.8147,7.0868 l 0.0654,0 c 0.0903,0 0.1626,0.0723 0.1626,0.1626 0,0.0976 0,0.1951 0,0.2926 0,0.0085 -0.0039,0.0128 -0.0118,0.0128 l -0.0736,0 c -0.0079,0 -0.0118,-0.0043 -0.0118,-0.0128 0,-0.0975 0,-0.195 0,-0.2926 0,-0.0355 -0.0301,-0.0645 -0.0654,-0.0645 l -0.0654,0 c -0.0353,0 -0.0654,0.029 -0.0654,0.0645 0,0.0976 0,0.1951 0,0.2926 z M 8.4081,7.4144 C 8.4435,7.3121 8.473,7.2098 8.5084,7.1076 8.5103,7.1021 8.5138,7.0994 8.5193,7.0994 l 0.0716,0 c 0.0086,0 0.0146,0.0083 0.0118,0.0163 C 8.553,7.2593 8.5091,7.403 8.4595,7.5466 8.4576,7.552 8.454,7.5548 8.4479,7.5548 l -0.0797,0 C 8.3622,7.5548 8.3586,7.552 8.3567,7.5466 8.307,7.403 8.2632,7.2593 8.2134,7.1157 8.2107,7.1077 8.2167,7.0994 8.2252,7.0994 l 0.0717,0 c 0.0054,0 0.009,0.0027 0.0109,0.0082 0.0353,0.1022 0.0649,0.2045 0.1003,0.3068 z M 8.1633,7.4091 C 8.1549,7.4913 8.0861,7.5548 8.0015,7.5548 l -0.0654,0 c -0.0903,0 -0.1626,-0.0724 -0.1626,-0.1626 0,-0.0476 0,-0.0952 0,-0.1427 0,-0.0903 0.0723,-0.1626 0.1626,-0.1626 l 0.0654,0 c 0.0903,0 0.1626,0.0723 0.1626,0.1626 l 0,0.1181 -0.0166,0 -0.0805,0 -0.1963,0 0,0.0246 c 0,0.0355 0.0301,0.0644 0.0654,0.0644 l 0.0654,0 c 0.0295,0 0.0554,-0.0201 0.0631,-0.0475 0,-0.0085 0.0039,-0.0127 0.0118,-0.0127 l 0.0751,0 c 0.0079,0 0.0118,0.0042 0.0118,0.0127 z M 8.067,7.2777 l 0,-0.0282 C 8.067,7.2139 8.0368,7.185 8.0015,7.185 l -0.0654,0 c -0.0353,0 -0.0654,0.0289 -0.0654,0.0645 l 0,0.0282 0.1963,0 z M 7.4315,7.3922 c 0,0.0355 0.0301,0.0644 0.0654,0.0644 l 0.0654,0 c 0.0353,0 0.0654,-0.0289 0.0654,-0.0644 0,-0.0476 0,-0.0952 0,-0.1427 0,-0.0356 -0.0301,-0.0645 -0.0654,-0.0645 l -0.0654,0 c -0.0353,0 -0.0654,0.0289 -0.0654,0.0645 0,0.0475 0,0.0951 0,0.1427 z"
       style="fill:#49b05c;fill-rule:evenodd"
       id="path19"
       inkscape:connector-curvature="0" />
  </g>
</svg>
